<svg width="229" height="50" viewBox="0 0 229 50" fill="none" xmlns="http://www.w3.org/2000/svg">
<path d="M46.7018 2.79567C42.4093 4.02213 38.4511 5.41582 37.8937 5.9733C37.1689 6.64228 36.4442 9.42968 35.4408 15.2275C33.9913 23.3109 33.9913 23.4782 34.9948 24.2586C35.608 24.6489 36.723 24.8719 37.5034 24.7604C38.2839 24.5931 42.3535 24.3144 46.5904 24.0914C56.848 23.5897 56.4577 24.0356 56.4577 12.2171C56.4577 3.18591 56.2347 1.23473 55.1755 0.844494C54.7853 0.732998 50.9944 1.56922 46.7018 2.79567Z" fill="white"/>
<path d="M28.0792 8.03693C22.6159 9.48638 17.933 12.1623 14.3652 15.7301C10.9088 19.2423 8.17714 23.8693 8.73462 25.263C9.06911 26.2108 12.2467 26.2665 22.0584 25.5975C26.9084 25.263 28.3021 24.9843 29.1384 24.0923C30.3648 22.9216 33.431 9.54212 32.8735 8.03693C32.4275 6.97772 31.9815 6.97772 28.0792 8.03693Z" fill="url(#paint0_linear_430_4435)"/>
<path d="M36.1256 27.9837C33.617 28.3182 33.0037 29.6004 31.61 37.5166C30.1606 45.9346 30.1606 46.3805 31.61 47.161C33.4497 48.1087 53.7977 50.5059 54.9684 49.8927C56.4736 49.0564 56.6409 48.1645 56.6409 38.7988C56.6409 26.8688 57.2541 27.5935 46.439 27.705C41.7562 27.705 37.1291 27.8722 36.1256 27.9837Z" fill="white"/>
<path d="M14.0886 28.8311C10.242 28.9984 6.78563 29.3886 6.3954 29.6116C6.00516 29.8903 4.27697 32.845 2.60454 36.2456C-0.0156168 41.4301 -0.350105 42.5451 0.263123 43.1583C1.15509 44.0503 22.0048 46.9492 23.956 46.4475C25.4054 46.113 26.1859 43.7716 27.7469 35.4651C28.5831 31.0053 28.6388 29.8903 28.0256 29.2213C27.3009 28.2736 26.9664 28.2736 14.0886 28.8311Z" fill="white"/>
<path d="M30.3129 5.85353H29.0586L30.3129 0V5.85353Z" fill="#F3B816"/>
<path d="M21.5326 7.31692L20.2783 7.73503L18.8149 1.46338L21.5326 7.31692Z" fill="#F3B816"/>
<path d="M15.0519 10.8708L14.2157 11.7071L10.2437 6.89881L15.0519 10.8708Z" fill="#F3B816"/>
<path d="M10.2437 15.4701L9.82557 16.7244L3.55393 14.2157L10.2437 15.4701Z" fill="#F3B816"/>
<path d="M8.15314 22.996V21.5326L0 22.996H8.15314Z" fill="#F3B816"/>
<path d="M75.1206 31.6768V2.0067H87.9274C90.1295 2.0067 92.0563 2.44132 93.7078 3.31057C95.3594 4.1798 96.6439 5.40157 97.5615 6.97586C98.479 8.55015 98.9378 10.39 98.9378 12.4955C98.9378 14.6203 98.4645 16.4602 97.518 18.0152C96.5811 19.5702 95.2628 20.7678 93.563 21.6081C91.8728 22.4483 89.8977 22.8685 87.6376 22.8685H79.9883V16.6099H86.0151C86.9616 16.6099 87.768 16.4457 88.4344 16.1174C89.1105 15.7793 89.6272 15.3012 89.9846 14.6831C90.3516 14.065 90.5351 13.3358 90.5351 12.4955C90.5351 11.6456 90.3516 10.9212 89.9846 10.3224C89.6272 9.71396 89.1105 9.25037 88.4344 8.93165C87.768 8.60327 86.9616 8.43908 86.0151 8.43908H83.1755V31.6768H75.1206ZM130.636 16.8417C130.636 20.1448 129.994 22.9312 128.709 25.2009C127.425 27.4609 125.691 29.1753 123.508 30.3439C121.326 31.5029 118.892 32.0824 116.207 32.0824C113.502 32.0824 111.059 31.4981 108.876 30.3294C106.703 29.1511 104.974 27.432 103.69 25.1719C102.415 22.9023 101.777 20.1255 101.777 16.8417C101.777 13.5386 102.415 10.7571 103.69 8.49703C104.974 6.22735 106.703 4.51301 108.876 3.35403C111.059 2.18538 113.502 1.60106 116.207 1.60106C118.892 1.60106 121.326 2.18538 123.508 3.35403C125.691 4.51301 127.425 6.22735 128.709 8.49703C129.994 10.7571 130.636 13.5386 130.636 16.8417ZM122.349 16.8417C122.349 15.0646 122.113 13.5676 121.639 12.3507C121.176 11.1241 120.485 10.1969 119.568 9.56909C118.66 8.93165 117.539 8.61293 116.207 8.61293C114.874 8.61293 113.749 8.93165 112.831 9.56909C111.923 10.1969 111.233 11.1241 110.759 12.3507C110.296 13.5676 110.064 15.0646 110.064 16.8417C110.064 18.6188 110.296 20.1207 110.759 21.3473C111.233 22.5642 111.923 23.4914 112.831 24.1289C113.749 24.7566 114.874 25.0705 116.207 25.0705C117.539 25.0705 118.66 24.7566 119.568 24.1289C120.485 23.4914 121.176 22.5642 121.639 21.3473C122.113 20.1207 122.349 18.6188 122.349 16.8417ZM140.024 31.6768L131.273 2.0067H140.256L144.312 20.2607H144.544L149.354 2.0067H156.423L161.233 20.3187H161.465L165.522 2.0067H174.504L165.753 31.6768H158.046L153.004 15.1033H152.773L147.731 31.6768H140.024ZM177.111 31.6768V2.0067H198.495V8.49703H185.166V13.5966H197.394V20.0869H185.166V25.1864H198.437V31.6768H177.111ZM202.49 31.6768V2.0067H215.296C217.498 2.0067 219.425 2.40752 221.077 3.20915C222.728 4.01079 224.013 5.16494 224.93 6.67163C225.848 8.17831 226.307 9.98439 226.307 12.0899C226.307 14.2147 225.833 16.0063 224.887 17.4647C223.95 18.9231 222.632 20.0241 220.932 20.7678C219.242 21.5115 217.267 21.8833 215.007 21.8833H207.357V15.6248H213.384C214.331 15.6248 215.137 15.5089 215.803 15.2771C216.48 15.0356 216.996 14.6541 217.354 14.1326C217.721 13.6111 217.904 12.9302 217.904 12.0899C217.904 11.24 217.721 10.5494 217.354 10.0182C216.996 9.47734 216.48 9.08135 215.803 8.83024C215.137 8.56946 214.331 8.43908 213.384 8.43908H210.545V31.6768H202.49ZM219.874 18.0587L227.292 31.6768H218.542L211.298 18.0587H219.874Z" fill="white"/>
<path d="M80.1156 41.2505C80.0665 40.7918 79.8599 40.4346 79.4958 40.1789C79.1351 39.9233 78.6658 39.7955 78.088 39.7955C77.6818 39.7955 77.3334 39.8568 77.0427 39.9793C76.7521 40.1019 76.5297 40.2682 76.3756 40.4783C76.2216 40.6885 76.1428 40.9283 76.1393 41.198C76.1393 41.4221 76.19 41.6164 76.2916 41.781C76.3967 41.9456 76.5385 42.0857 76.7171 42.2012C76.8957 42.3133 77.0935 42.4078 77.3106 42.4849C77.5277 42.5619 77.7466 42.6267 77.9672 42.6792L78.9757 42.9314C79.3819 43.0259 79.7724 43.1537 80.1471 43.3148C80.5253 43.4759 80.8632 43.679 81.1609 43.9241C81.462 44.1693 81.7001 44.4652 81.8752 44.8118C82.0503 45.1585 82.1379 45.5647 82.1379 46.0305C82.1379 46.6608 81.9768 47.2158 81.6546 47.6956C81.3325 48.1718 80.8667 48.5448 80.2574 48.8144C79.6516 49.0805 78.918 49.2136 78.0565 49.2136C77.2196 49.2136 76.493 49.084 75.8766 48.8249C75.2638 48.5658 74.7841 48.1876 74.4374 47.6903C74.0942 47.1931 73.9086 46.5873 73.8806 45.8729H75.7978C75.8259 46.2476 75.9414 46.5592 76.1445 46.8079C76.3476 47.0565 76.612 47.2421 76.9377 47.3647C77.2669 47.4872 77.6345 47.5485 78.0408 47.5485C78.4645 47.5485 78.8357 47.4855 79.1543 47.3594C79.4765 47.2298 79.7286 47.0512 79.9107 46.8236C80.0928 46.5925 80.1856 46.3229 80.1891 46.0147C80.1856 45.7346 80.1033 45.5034 79.9422 45.3214C79.7812 45.1358 79.5553 44.9817 79.2646 44.8591C78.9775 44.733 78.6413 44.621 78.2561 44.5229L77.0322 44.2078C76.1463 43.9802 75.4459 43.6352 74.9311 43.173C74.4199 42.7073 74.1642 42.0892 74.1642 41.3188C74.1642 40.685 74.3358 40.1299 74.679 39.6537C75.0257 39.1774 75.4967 38.808 76.092 38.5453C76.6873 38.2792 77.3614 38.1461 78.1143 38.1461C78.8777 38.1461 79.5465 38.2792 80.1208 38.5453C80.6986 38.808 81.1521 39.1739 81.4813 39.6432C81.8105 40.1089 81.9803 40.6447 81.9908 41.2505H80.1156ZM104.433 43.672C104.433 44.8311 104.216 45.8239 103.782 46.6503C103.351 47.4732 102.763 48.1035 102.017 48.5413C101.275 48.979 100.433 49.1979 99.4907 49.1979C98.5487 49.1979 97.7048 48.979 96.9589 48.5413C96.2165 48.1 95.6282 47.468 95.194 46.645C94.7632 45.8186 94.5479 44.8276 94.5479 43.672C94.5479 42.5129 94.7632 41.5219 95.194 40.699C95.6282 39.8725 96.2165 39.2405 96.9589 38.8027C97.7048 38.365 98.5487 38.1461 99.4907 38.1461C100.433 38.1461 101.275 38.365 102.017 38.8027C102.763 39.2405 103.351 39.8725 103.782 40.699C104.216 41.5219 104.433 42.5129 104.433 43.672ZM102.474 43.672C102.474 42.8561 102.346 42.168 102.091 41.6077C101.839 41.0439 101.488 40.6184 101.04 40.3313C100.592 40.0406 100.075 39.8953 99.4907 39.8953C98.9059 39.8953 98.3894 40.0406 97.9411 40.3313C97.4929 40.6184 97.141 41.0439 96.8853 41.6077C96.6332 42.168 96.5072 42.8561 96.5072 43.672C96.5072 44.4879 96.6332 45.1778 96.8853 45.7416C97.141 46.3019 97.4929 46.7273 97.9411 47.018C98.3894 47.3051 98.9059 47.4487 99.4907 47.4487C100.075 47.4487 100.592 47.3051 101.04 47.018C101.488 46.7273 101.839 46.3019 102.091 45.7416C102.346 45.1778 102.474 44.4879 102.474 43.672ZM117.222 49.0508V38.2932H119.17V47.4172H123.908V49.0508H117.222ZM143.327 38.2932H145.276V45.3214C145.276 46.0918 145.094 46.7694 144.729 47.3542C144.369 47.939 143.861 48.3959 143.206 48.7251C142.551 49.0508 141.786 49.2136 140.911 49.2136C140.032 49.2136 139.265 49.0508 138.61 48.7251C137.955 48.3959 137.447 47.939 137.087 47.3542C136.726 46.7694 136.546 46.0918 136.546 45.3214V38.2932H138.494V45.1585C138.494 45.6067 138.592 46.006 138.789 46.3561C138.988 46.7063 139.268 46.9812 139.629 47.1808C139.99 47.3769 140.417 47.475 140.911 47.475C141.404 47.475 141.832 47.3769 142.192 47.1808C142.556 46.9812 142.837 46.7063 143.033 46.3561C143.229 46.006 143.327 45.6067 143.327 45.1585V38.2932ZM157.867 39.9268V38.2932H166.45V39.9268H163.125V49.0508H161.192V39.9268H157.867ZM180.999 38.2932V49.0508H179.05V38.2932H180.999ZM203.668 43.672C203.668 44.8311 203.45 45.8239 203.016 46.6503C202.585 47.4732 201.997 48.1035 201.251 48.5413C200.509 48.979 199.667 49.1979 198.725 49.1979C197.783 49.1979 196.939 48.979 196.193 48.5413C195.451 48.1 194.862 47.468 194.428 46.645C193.997 45.8186 193.782 44.8276 193.782 43.672C193.782 42.5129 193.997 41.5219 194.428 40.699C194.862 39.8725 195.451 39.2405 196.193 38.8027C196.939 38.365 197.783 38.1461 198.725 38.1461C199.667 38.1461 200.509 38.365 201.251 38.8027C201.997 39.2405 202.585 39.8725 203.016 40.699C203.45 41.5219 203.668 42.5129 203.668 43.672ZM201.708 43.672C201.708 42.8561 201.58 42.168 201.325 41.6077C201.073 41.0439 200.723 40.6184 200.274 40.3313C199.826 40.0406 199.31 39.8953 198.725 39.8953C198.14 39.8953 197.623 40.0406 197.175 40.3313C196.727 40.6184 196.375 41.0439 196.119 41.6077C195.867 42.168 195.741 42.8561 195.741 43.672C195.741 44.4879 195.867 45.1778 196.119 45.7416C196.375 46.3019 196.727 46.7273 197.175 47.018C197.623 47.3051 198.14 47.4487 198.725 47.4487C199.31 47.4487 199.826 47.3051 200.274 47.018C200.723 46.7273 201.073 46.3019 201.325 45.7416C201.58 45.1778 201.708 44.4879 201.708 43.672ZM225.296 38.2932V49.0508H223.563L218.494 41.7232H218.405V49.0508H216.456V38.2932H218.2L223.263 45.626H223.358V38.2932H225.296Z" fill="white"/>
<path d="M68.3831 6.35333C68.2962 6.07184 68.1763 5.81988 68.0234 5.59746C67.874 5.37157 67.6932 5.17869 67.4813 5.01883C67.2727 4.85897 67.0329 4.73907 66.7619 4.65914C66.4908 4.57574 66.1954 4.53403 65.8757 4.53403C65.3023 4.53403 64.7914 4.67826 64.3431 4.9667C63.8948 5.25515 63.542 5.67913 63.2849 6.23865C63.0312 6.79469 62.9043 7.47237 62.9043 8.27168C62.9043 9.07794 63.0312 9.76083 63.2849 10.3204C63.5386 10.8799 63.8913 11.3056 64.3431 11.5975C64.7949 11.886 65.3196 12.0302 65.9174 12.0302C66.4595 12.0302 66.9287 11.9259 67.3249 11.7174C67.7245 11.5089 68.0321 11.2135 68.2475 10.8312C68.463 10.4455 68.5708 9.99368 68.5708 9.47586L69.0086 9.54363H66.1103V8.03189H70.4422V9.31426C70.4422 10.2283 70.2476 11.0189 69.8583 11.6861C69.4691 12.3534 68.9339 12.8677 68.2528 13.2291C67.5716 13.5871 66.7897 13.7661 65.907 13.7661C64.9235 13.7661 64.0599 13.5454 63.3161 13.104C62.5759 12.6592 61.9973 12.0284 61.5803 11.2118C61.1667 10.3916 60.9599 9.41852 60.9599 8.29253C60.9599 7.43067 61.0815 6.6609 61.3248 5.98322C61.5716 5.30554 61.9156 4.73039 62.357 4.25775C62.7983 3.78164 63.3161 3.42021 63.9104 3.17347C64.5047 2.92325 65.1511 2.79814 65.8496 2.79814C66.4404 2.79814 66.9912 2.88502 67.5021 3.05878C68.013 3.22907 68.4665 3.47234 68.8627 3.78859C69.2623 4.10484 69.5907 4.48017 69.8479 4.91457C70.1051 5.34898 70.2736 5.82857 70.3536 6.35333H68.3831ZM70.1046 20.9441V31.6201H68.3844L63.3539 24.3481H63.2653V31.6201H61.3313V20.9441H63.062L68.0873 28.2213H68.1811V20.9441H70.1046ZM63.3201 38.9441L65.6711 42.8538H65.7545L68.1159 38.9441H70.321L67.0316 44.2821L70.3731 49.6201H68.1316L65.7545 45.7365H65.6711L63.294 49.6201H61.0629L64.4356 44.2821L61.1046 38.9441H63.3201Z" fill="url(#paint1_linear_430_4435)"/>
<defs>
<linearGradient id="header_bg_grad" x1="0" y1="0" x2="229" y2="0" gradientUnits="userSpaceOnUse">
<stop stop-color="#02438A"/>
<stop offset="1" stop-color="#029FC8"/>
</linearGradient>
<linearGradient id="paint0_linear_430_4435" x1="22.3797" y1="15.8297" x2="28.7114" y2="24.0173" gradientUnits="userSpaceOnUse">
<stop stop-color="#F3B816"/>
<stop offset="1" stop-color="#E75B2A"/>
</linearGradient>
<linearGradient id="paint1_linear_430_4435" x1="65.7186" y1="2.62012" x2="65.7186" y2="49.6201" gradientUnits="userSpaceOnUse">
<stop offset="0.658513" stop-color="#F3B816"/>
<stop offset="1" stop-color="#E75C2B"/>
</linearGradient>
</defs>
</svg>
